<?xml version="1.0" encoding="UTF-8"?>
<svg xmlns="http://www.w3.org/2000/svg" xmlns:xlink="http://www.w3.org/1999/xlink" width="150px" height="150px" viewBox="0 0 150 150" version="1.1">
<defs>
<clipPath id="clip1">
  <path d="M 25.082031 67.050781 L 112.039062 67.050781 L 112.039062 82.851562 L 25.082031 82.851562 Z M 25.082031 67.050781 "/>
</clipPath>
<clipPath id="clip2">
  <path d="M 115.769531 69 L 124.792969 69 L 124.792969 85.871094 L 115.769531 85.871094 Z M 115.769531 69 "/>
</clipPath>
<clipPath id="clip3">
  <path d="M 117 64.035156 L 123 64.035156 L 123 69 L 117 69 Z M 117 64.035156 "/>
</clipPath>
</defs>
<g id="surface1">
<rect x="0" y="0" width="150" height="150" style="fill:rgb(100%,100%,100%);fill-opacity:1;stroke:none;"/>
<g clip-path="url(#clip1)" clip-rule="nonzero">
<path style=" stroke:none;fill-rule:nonzero;fill:rgb(0%,0%,0%);fill-opacity:1;" d="M 32.003906 79.335938 L 25.085938 79.335938 L 25.085938 67.050781 L 32.003906 67.050781 L 32.003906 68.105469 L 26.191406 68.105469 L 26.191406 72.671875 L 30.898438 72.671875 L 30.898438 73.726562 L 26.191406 73.726562 L 26.191406 78.285156 L 32.003906 78.285156 Z M 44.074219 79.335938 L 43.019531 79.335938 L 43.019531 72.910156 C 43.019531 72.703125 42.980469 72.503906 42.902344 72.316406 C 42.820312 72.128906 42.710938 71.96875 42.574219 71.832031 C 42.4375 71.695312 42.273438 71.585938 42.089844 71.507812 C 41.90625 71.425781 41.707031 71.386719 41.492188 71.386719 L 40.972656 71.386719 C 40.761719 71.386719 40.5625 71.425781 40.378906 71.507812 C 40.191406 71.585938 40.027344 71.695312 39.890625 71.832031 C 39.75 71.96875 39.640625 72.128906 39.558594 72.316406 C 39.476562 72.503906 39.4375 72.703125 39.4375 72.910156 L 39.4375 79.335938 L 38.394531 79.335938 L 38.394531 72.910156 C 38.394531 72.703125 38.351562 72.503906 38.269531 72.316406 C 38.191406 72.128906 38.082031 71.96875 37.941406 71.832031 C 37.804688 71.695312 37.640625 71.585938 37.453125 71.507812 C 37.269531 71.425781 37.070312 71.386719 36.859375 71.386719 L 36.335938 71.386719 C 36.125 71.386719 35.925781 71.425781 35.742188 71.507812 C 35.554688 71.585938 35.394531 71.695312 35.257812 71.832031 C 35.117188 71.96875 35.011719 72.128906 34.929688 72.316406 C 34.851562 72.503906 34.8125 72.703125 34.8125 72.910156 L 34.8125 79.335938 L 33.757812 79.335938 L 33.757812 70.5625 L 34.109375 70.5625 L 34.683594 71.457031 C 34.921875 71.128906 35.222656 70.871094 35.585938 70.679688 C 35.949219 70.488281 36.34375 70.390625 36.773438 70.390625 L 36.859375 70.390625 C 37.355469 70.390625 37.804688 70.515625 38.203125 70.761719 C 38.605469 71.007812 38.914062 71.332031 39.132812 71.734375 C 39.238281 71.539062 39.371094 71.355469 39.53125 71.1875 C 39.691406 71.023438 39.871094 70.882812 40.066406 70.765625 C 40.257812 70.648438 40.46875 70.554688 40.695312 70.492188 C 40.925781 70.425781 41.164062 70.390625 41.410156 70.390625 L 41.492188 70.390625 C 41.847656 70.390625 42.183594 70.460938 42.496094 70.59375 C 42.808594 70.730469 43.085938 70.914062 43.316406 71.148438 C 43.554688 71.378906 43.738281 71.65625 43.871094 71.96875 C 44.007812 72.285156 44.074219 72.617188 44.074219 72.972656 Z M 52.042969 76.929688 C 52.042969 77.285156 51.976562 77.617188 51.839844 77.933594 C 51.707031 78.246094 51.523438 78.519531 51.289062 78.753906 C 51.054688 78.988281 50.777344 79.171875 50.464844 79.304688 C 50.148438 79.441406 49.816406 79.507812 49.464844 79.507812 L 49.195312 79.507812 C 48.804688 79.507812 48.4375 79.429688 48.101562 79.269531 C 47.761719 79.109375 47.472656 78.886719 47.234375 78.601562 L 47.234375 82.851562 L 46.183594 82.851562 L 46.183594 70.5625 L 46.53125 70.5625 L 47.105469 71.457031 C 47.347656 71.128906 47.648438 70.871094 48.011719 70.679688 C 48.371094 70.488281 48.769531 70.390625 49.195312 70.390625 L 49.464844 70.390625 C 49.816406 70.390625 50.148438 70.460938 50.464844 70.59375 C 50.777344 70.730469 51.054688 70.914062 51.289062 71.148438 C 51.523438 71.378906 51.707031 71.65625 51.839844 71.96875 C 51.976562 72.285156 52.042969 72.617188 52.042969 72.972656 Z M 50.984375 76.988281 L 50.984375 72.910156 C 50.984375 72.703125 50.945312 72.503906 50.867188 72.316406 C 50.789062 72.128906 50.679688 71.96875 50.539062 71.832031 C 50.40625 71.695312 50.242188 71.585938 50.054688 71.507812 C 49.871094 71.425781 49.671875 71.386719 49.464844 71.386719 L 48.757812 71.386719 C 48.546875 71.386719 48.347656 71.425781 48.164062 71.507812 C 47.976562 71.585938 47.816406 71.695312 47.679688 71.832031 C 47.542969 71.96875 47.433594 72.128906 47.355469 72.316406 C 47.273438 72.503906 47.234375 72.703125 47.234375 72.910156 L 47.234375 76.988281 C 47.234375 77.199219 47.273438 77.398438 47.355469 77.585938 C 47.433594 77.769531 47.542969 77.933594 47.679688 78.070312 C 47.816406 78.207031 47.976562 78.3125 48.164062 78.394531 C 48.347656 78.476562 48.546875 78.515625 48.757812 78.515625 L 49.464844 78.515625 C 49.671875 78.515625 49.871094 78.476562 50.054688 78.394531 C 50.242188 78.3125 50.40625 78.207031 50.539062 78.070312 C 50.679688 77.933594 50.789062 77.769531 50.867188 77.585938 C 50.945312 77.398438 50.984375 77.199219 50.984375 76.988281 Z M 55.550781 79.335938 L 54.5 79.335938 L 54.5 67.050781 L 55.550781 67.050781 Z M 63.703125 76.929688 C 63.703125 77.285156 63.632812 77.617188 63.496094 77.933594 C 63.363281 78.246094 63.179688 78.519531 62.945312 78.753906 C 62.710938 78.988281 62.4375 79.171875 62.125 79.304688 C 61.808594 79.441406 61.476562 79.507812 61.121094 79.507812 L 60.417969 79.507812 C 60.0625 79.507812 59.730469 79.441406 59.417969 79.304688 C 59.101562 79.171875 58.828125 78.988281 58.59375 78.753906 C 58.359375 78.519531 58.175781 78.246094 58.039062 77.933594 C 57.90625 77.617188 57.839844 77.285156 57.839844 76.929688 L 57.839844 72.972656 C 57.839844 72.617188 57.90625 72.285156 58.039062 71.96875 C 58.175781 71.65625 58.359375 71.378906 58.59375 71.148438 C 58.828125 70.914062 59.101562 70.730469 59.417969 70.59375 C 59.730469 70.460938 60.0625 70.390625 60.417969 70.390625 L 61.121094 70.390625 C 61.476562 70.390625 61.808594 70.460938 62.125 70.59375 C 62.4375 70.730469 62.710938 70.914062 62.945312 71.148438 C 63.179688 71.378906 63.363281 71.65625 63.496094 71.96875 C 63.632812 72.285156 63.703125 72.617188 63.703125 72.972656 Z M 62.648438 76.988281 L 62.648438 72.910156 C 62.648438 72.703125 62.605469 72.503906 62.527344 72.316406 C 62.445312 72.128906 62.339844 71.96875 62.203125 71.832031 C 62.066406 71.695312 61.902344 71.585938 61.71875 71.507812 C 61.53125 71.425781 61.332031 71.386719 61.121094 71.386719 L 60.417969 71.386719 C 60.207031 71.386719 60.007812 71.425781 59.824219 71.507812 C 59.636719 71.585938 59.476562 71.695312 59.339844 71.832031 C 59.203125 71.96875 59.09375 72.128906 59.011719 72.316406 C 58.933594 72.503906 58.894531 72.703125 58.894531 72.910156 L 58.894531 76.988281 C 58.894531 77.199219 58.933594 77.398438 59.011719 77.585938 C 59.09375 77.769531 59.203125 77.933594 59.339844 78.070312 C 59.476562 78.207031 59.636719 78.3125 59.824219 78.394531 C 60.007812 78.476562 60.207031 78.515625 60.417969 78.515625 L 61.121094 78.515625 C 61.332031 78.515625 61.53125 78.476562 61.71875 78.394531 C 61.902344 78.3125 62.066406 78.207031 62.203125 78.070312 C 62.339844 77.933594 62.445312 77.769531 62.527344 77.585938 C 62.605469 77.398438 62.648438 77.199219 62.648438 76.988281 Z M 71.667969 70.5625 L 67.226562 82.851562 L 66.210938 82.851562 L 67.769531 78.582031 L 64.925781 70.5625 L 65.980469 70.5625 L 68.265625 77.214844 L 68.300781 77.667969 L 68.332031 77.214844 L 70.613281 70.5625 Z M 78.582031 76.929688 C 78.582031 77.285156 78.515625 77.617188 78.382812 77.933594 C 78.246094 78.246094 78.0625 78.519531 77.828125 78.753906 C 77.59375 78.988281 77.320312 79.171875 77.003906 79.304688 C 76.691406 79.441406 76.359375 79.507812 76 79.507812 L 75.300781 79.507812 C 74.945312 79.507812 74.613281 79.441406 74.296875 79.304688 C 73.984375 79.171875 73.710938 78.988281 73.476562 78.753906 C 73.242188 78.519531 73.054688 78.246094 72.921875 77.933594 C 72.789062 77.617188 72.71875 77.285156 72.71875 76.929688 L 72.71875 72.972656 C 72.71875 72.617188 72.789062 72.285156 72.921875 71.96875 C 73.054688 71.65625 73.242188 71.378906 73.476562 71.148438 C 73.710938 70.914062 73.984375 70.730469 74.296875 70.59375 C 74.613281 70.460938 74.945312 70.390625 75.300781 70.390625 L 76 70.390625 C 76.359375 70.390625 76.691406 70.460938 77.003906 70.59375 C 77.320312 70.730469 77.59375 70.914062 77.828125 71.148438 C 78.0625 71.378906 78.246094 71.65625 78.382812 71.96875 C 78.515625 72.285156 78.582031 72.617188 78.582031 72.972656 L 78.582031 75.035156 L 73.773438 75.035156 L 73.773438 76.988281 C 73.773438 77.199219 73.8125 77.398438 73.894531 77.585938 C 73.976562 77.769531 74.082031 77.933594 74.21875 78.070312 C 74.355469 78.207031 74.519531 78.3125 74.703125 78.394531 C 74.890625 78.476562 75.089844 78.515625 75.300781 78.515625 L 76 78.515625 C 76.214844 78.515625 76.414062 78.476562 76.597656 78.394531 C 76.785156 78.3125 76.945312 78.207031 77.082031 78.070312 C 77.21875 77.933594 77.328125 77.769531 77.410156 77.585938 C 77.488281 77.398438 77.527344 77.199219 77.527344 76.988281 L 77.527344 76.40625 L 78.582031 76.578125 Z M 77.527344 74.214844 L 77.527344 72.910156 C 77.527344 72.703125 77.488281 72.503906 77.410156 72.316406 C 77.328125 72.128906 77.21875 71.96875 77.082031 71.832031 C 76.945312 71.695312 76.785156 71.585938 76.597656 71.507812 C 76.414062 71.425781 76.214844 71.386719 76 71.386719 L 75.300781 71.386719 C 75.089844 71.386719 74.890625 71.425781 74.703125 71.507812 C 74.519531 71.585938 74.355469 71.695312 74.21875 71.832031 C 74.082031 71.96875 73.976562 72.128906 73.894531 72.316406 C 73.8125 72.503906 73.773438 72.703125 73.773438 72.910156 L 73.773438 74.214844 Z M 86.546875 76.929688 C 86.546875 77.285156 86.480469 77.617188 86.347656 77.933594 C 86.214844 78.246094 86.03125 78.519531 85.792969 78.753906 C 85.558594 78.988281 85.285156 79.171875 84.972656 79.304688 C 84.660156 79.441406 84.324219 79.507812 83.96875 79.507812 L 83.265625 79.507812 C 82.914062 79.507812 82.578125 79.441406 82.265625 79.304688 C 81.949219 79.171875 81.675781 78.988281 81.441406 78.753906 C 81.207031 78.519531 81.023438 78.246094 80.890625 77.933594 C 80.753906 77.617188 80.6875 77.285156 80.6875 76.929688 L 80.6875 72.972656 C 80.6875 72.617188 80.753906 72.285156 80.890625 71.96875 C 81.023438 71.65625 81.207031 71.378906 81.441406 71.148438 C 81.675781 70.914062 81.949219 70.730469 82.265625 70.59375 C 82.578125 70.460938 82.914062 70.390625 83.265625 70.390625 L 83.96875 70.390625 C 84.324219 70.390625 84.660156 70.460938 84.972656 70.59375 C 85.285156 70.730469 85.558594 70.914062 85.792969 71.148438 C 86.03125 71.378906 86.214844 71.65625 86.347656 71.96875 C 86.480469 72.285156 86.546875 72.617188 86.546875 72.972656 L 86.546875 75.035156 L 81.742188 75.035156 L 81.742188 76.988281 C 81.742188 77.199219 81.785156 77.398438 81.863281 77.585938 C 81.941406 77.769531 82.050781 77.933594 82.1875 78.070312 C 82.324219 78.207031 82.484375 78.3125 82.671875 78.394531 C 82.859375 78.476562 83.054688 78.515625 83.265625 78.515625 L 83.96875 78.515625 C 84.179688 78.515625 84.378906 78.476562 84.566406 78.394531 C 84.75 78.3125 84.910156 78.207031 85.050781 78.070312 C 85.1875 77.933594 85.296875 77.769531 85.375 77.585938 C 85.457031 77.398438 85.496094 77.199219 85.496094 76.988281 L 85.496094 76.40625 L 86.546875 76.578125 Z M 85.496094 74.214844 L 85.496094 72.910156 C 85.496094 72.703125 85.457031 72.503906 85.375 72.316406 C 85.296875 72.128906 85.1875 71.96875 85.050781 71.832031 C 84.910156 71.695312 84.75 71.585938 84.566406 71.507812 C 84.378906 71.425781 84.179688 71.386719 83.96875 71.386719 L 83.265625 71.386719 C 83.054688 71.386719 82.859375 71.425781 82.671875 71.507812 C 82.484375 71.585938 82.324219 71.695312 82.1875 71.832031 C 82.050781 71.96875 81.941406 72.128906 81.863281 72.316406 C 81.785156 72.503906 81.742188 72.703125 81.742188 72.910156 L 81.742188 74.214844 Z M 95.921875 79.335938 L 94.816406 79.335938 L 94.816406 73.726562 L 90.113281 73.726562 L 90.113281 79.335938 L 89.007812 79.335938 L 89.007812 67.050781 L 90.113281 67.050781 L 90.113281 72.671875 L 94.816406 72.671875 L 94.816406 67.050781 L 95.921875 67.050781 Z M 104.066406 79.335938 L 103.714844 79.335938 L 103.132812 78.445312 C 102.894531 78.773438 102.59375 79.03125 102.234375 79.222656 C 101.875 79.414062 101.480469 79.507812 101.050781 79.507812 L 100.785156 79.507812 C 100.433594 79.507812 100.097656 79.441406 99.785156 79.304688 C 99.46875 79.171875 99.195312 78.988281 98.960938 78.753906 C 98.726562 78.519531 98.542969 78.246094 98.410156 77.933594 C 98.277344 77.617188 98.210938 77.285156 98.210938 76.929688 L 98.210938 70.5625 L 99.261719 70.5625 L 99.261719 76.988281 C 99.261719 77.199219 99.300781 77.398438 99.382812 77.585938 C 99.460938 77.769531 99.570312 77.933594 99.707031 78.070312 C 99.84375 78.207031 100.003906 78.3125 100.191406 78.394531 C 100.378906 78.476562 100.574219 78.515625 100.785156 78.515625 L 101.492188 78.515625 C 101.703125 78.515625 101.898438 78.476562 102.085938 78.394531 C 102.273438 78.3125 102.433594 78.207031 102.570312 78.070312 C 102.707031 77.933594 102.816406 77.769531 102.894531 77.585938 C 102.976562 77.398438 103.015625 77.199219 103.015625 76.988281 L 103.015625 70.5625 L 104.066406 70.5625 Z M 112.039062 76.929688 C 112.039062 77.285156 111.96875 77.617188 111.832031 77.933594 C 111.699219 78.246094 111.515625 78.519531 111.28125 78.753906 C 111.046875 78.988281 110.773438 79.171875 110.460938 79.304688 C 110.144531 79.441406 109.8125 79.507812 109.457031 79.507812 L 108.757812 79.507812 C 108.398438 79.507812 108.066406 79.441406 107.753906 79.304688 C 107.4375 79.171875 107.164062 78.988281 106.929688 78.753906 C 106.695312 78.519531 106.511719 78.246094 106.375 77.933594 C 106.242188 77.617188 106.175781 77.285156 106.175781 76.929688 L 106.175781 67.050781 L 107.230469 67.050781 L 107.230469 71.300781 C 107.46875 71.015625 107.757812 70.792969 108.097656 70.632812 C 108.433594 70.472656 108.796875 70.390625 109.191406 70.390625 L 109.457031 70.390625 C 109.8125 70.390625 110.144531 70.460938 110.460938 70.59375 C 110.773438 70.730469 111.046875 70.914062 111.28125 71.148438 C 111.515625 71.378906 111.699219 71.65625 111.832031 71.96875 C 111.96875 72.285156 112.039062 72.617188 112.039062 72.972656 Z M 110.980469 76.988281 L 110.980469 72.910156 C 110.980469 72.703125 110.941406 72.503906 110.863281 72.316406 C 110.78125 72.128906 110.671875 71.96875 110.535156 71.832031 C 110.398438 71.695312 110.238281 71.585938 110.054688 71.507812 C 109.867188 71.425781 109.667969 71.386719 109.457031 71.386719 L 108.757812 71.386719 C 108.542969 71.386719 108.34375 71.425781 108.160156 71.507812 C 107.972656 71.585938 107.8125 71.695312 107.675781 71.832031 C 107.535156 71.96875 107.429688 72.128906 107.347656 72.316406 C 107.269531 72.503906 107.230469 72.703125 107.230469 72.910156 L 107.230469 76.988281 C 107.230469 77.199219 107.269531 77.398438 107.347656 77.585938 C 107.429688 77.769531 107.535156 77.933594 107.675781 78.070312 C 107.8125 78.207031 107.972656 78.3125 108.160156 78.394531 C 108.34375 78.476562 108.542969 78.515625 108.757812 78.515625 L 109.457031 78.515625 C 109.667969 78.515625 109.867188 78.476562 110.054688 78.394531 C 110.238281 78.3125 110.398438 78.207031 110.535156 78.070312 C 110.671875 77.933594 110.78125 77.769531 110.863281 77.585938 C 110.941406 77.398438 110.980469 77.199219 110.980469 76.988281 Z M 110.980469 76.988281 "/>
</g>
<g clip-path="url(#clip2)" clip-rule="nonzero">
<path style=" stroke:none;fill-rule:nonzero;fill:rgb(100%,63.921569%,10.196078%);fill-opacity:1;" d="M 123.558594 69.6875 L 121.59375 69.6875 L 120.285156 71.628906 L 118.972656 69.6875 L 117.007812 69.6875 C 116.328125 69.6875 115.769531 70.246094 115.769531 70.921875 L 115.769531 76.601562 C 115.769531 77.28125 116.328125 77.839844 117.007812 77.839844 L 117.566406 77.839844 L 117.566406 84.632812 C 117.566406 85.308594 118.125 85.867188 118.804688 85.867188 L 119.046875 85.867188 C 119.726562 85.867188 120.285156 85.308594 120.285156 84.632812 C 120.285156 85.308594 120.839844 85.867188 121.519531 85.867188 L 121.761719 85.867188 C 122.441406 85.867188 123 85.308594 123 84.632812 L 123 77.839844 L 123.558594 77.839844 C 124.238281 77.839844 124.796875 77.28125 124.796875 76.601562 L 124.796875 70.921875 C 124.796875 70.246094 124.238281 69.6875 123.558594 69.6875 "/>
</g>
<g clip-path="url(#clip3)" clip-rule="nonzero">
<path style=" stroke:none;fill-rule:nonzero;fill:rgb(100%,63.921569%,10.196078%);fill-opacity:1;" d="M 122.613281 66.363281 C 122.613281 67.648438 121.570312 68.691406 120.285156 68.691406 C 118.996094 68.691406 117.953125 67.648438 117.953125 66.363281 C 117.953125 65.074219 118.996094 64.035156 120.285156 64.035156 C 121.570312 64.035156 122.613281 65.074219 122.613281 66.363281 Z M 122.613281 66.363281 "/>
</g>
</g>
</svg>
